:SAMPLES-PER-SECOND 30
:FULLY-SPECIFIED
:DEGREES
361
root  17.7302 38.0943 -0.437389 -163.55 -83.6082 160.094
RightUpLeg  15.9306 -7.82239 -4.41906
RightLeg  13.1371 12.4413 1.92201
RightFoot  -21.356 -0.295347 -1.71865
RightToes  -1.33073e-015 0 -3.6325e-017
Spine  5.46845 2.94202 9.0869
Spine1  4.44217 5.55604 -10.1021
HEad  -4.79801 -8.89702 0.0830105
LeftShoulder1  -0.427466 4.60726 -32.5974
LeftArm  0.210265 16.5176 -38.9065
LeftForeArm  32.6843 -11.6466 -8.18015
LeftHand  -0.172348 9.88602 -2.95723
RightShoulder  -0.859107 -5.90585 29.1683
RightArm  28.5446 10.5839 49.9077
RightForeArm  5.76288 27.8568 5.70332
RightHand  -0.444356 6.63051 -4.62792
LeftUpLeg  -20.3606 2.01179 -0.473911
LeftLeg  0.774481 4.20454 -0.749486
LeftFoot  -2.43878 0.227263 -3.40443
LeftToes  -1.63346e-009 7.54925e-011 9.86887e-012
362
root  16.0393 37.8607 -0.251234 -159.715 -83.4365 155.883
RightUpLeg  17.9691 -5.28013 -5.14652
RightLeg  15.2479 10.7167 2.19511
RightFoot  -21.9509 -0.0226872 1.33225
RightToes  -1.33073e-015 0 -3.6325e-017
Spine  5.40671 2.97068 7.70049
Spine1  4.6653 5.57715 -9.97562
HEad  -6.18718 -0.767423 -0.930506
LeftShoulder1  -0.46492 4.6974 -32.8124
LeftArm  0.491714 15.9323 -38.9952
LeftForeArm  32.9611 -11.7187 -8.23672
LeftHand  -0.19918 11.0527 -2.73139
RightShoulder  -0.895129 -5.98473 29.4804
RightArm  29.4589 9.50772 49.5986
RightForeArm  4.17899 25.2057 5.15112
RightHand  -0.414727 6.41943 -4.41078
LeftUpLeg  -22.0205 1.27083 -2.29928
LeftLeg  7.96405 4.48491 0.241137
LeftFoot  4.38625 -0.417804 3.01177
LeftToes  -1.63346e-009 7.54925e-011 9.86887e-012
363
root  14.3119 37.6286 -0.0883612 -155.143 -82.619 150.356
RightUpLeg  19.2369 -1.1513 -5.89472
RightLeg  19.8874 8.41098 3.16126
RightFoot  -21.7701 0.38516 5.78513
RightToes  -1.33073e-015 0 -3.6325e-017
Spine  5.99547 3.35788 5.77371
Spine1  4.48234 5.75006 -9.6548
HEad  -5.29633 -1.17967 -0.339402
LeftShoulder1  -0.532909 4.85875 -33.1569
LeftArm  1.05681 15.0661 -38.6579
LeftForeArm  33.093 -11.8627 -8.28917
LeftHand  -0.148473 9.54667 -2.56034
RightShoulder  -0.959596 -6.10228 30.3599
RightArm  29.2138 8.08212 49.1805
RightForeArm  3.46628 21.3399 5.0457
RightHand  -0.376987 6.38676 -4.04557
LeftUpLeg  -22.1946 1.77062 -4.08258
LeftLeg  14.0944 3.15129 0.908194
LeftFoot  8.46274 -0.731154 3.93282
LeftToes  -1.63346e-009 7.54925e-011 9.86887e-012
364
root  12.6343 37.4529 0.0671331 -146.506 -81.6676 141.062
RightUpLeg  17.6312 0.364661 -8.11304
RightLeg  28.8495 8.09158 4.58623
RightFoot  -18.7457 0.600294 11.9547
RightToes  -1.33073e-015 0 -3.6325e-017
Spine  6.43694 3.68531 2.84235
Spine1  4.43802 5.64726 -8.79268
HEad  -4.95905 -0.833274 -0.582838
LeftShoulder1  -0.595203 4.99749 -33.6718
LeftArm  2.03261 13.8583 -38.4394
LeftForeArm  31.4901 -12.1703 -8.37488
LeftHand  -0.127333 9.79891 -1.86153
RightShoulder  -0.939774 -6.03607 30.5208
RightArm  24.4036 6.8304 49.3474
RightForeArm  7.53891 15.3779 6.81143
RightHand  -0.305696 6.02643 -3.44707
LeftUpLeg  -22.4055 3.15312 -6.58936
LeftLeg  20.8032 2.16073 1.28969
LeftFoot  5.2663 -0.768967 5.06558
LeftToes  -1.63346e-009 7.54925e-011 9.86887e-012
365
root  11.1139 37.4714 0.25509 -143.589 -80.4247 137.71
RightUpLeg  12.7883 2.2581 -9.9415
RightLeg  40.6881 7.00477 6.12967
RightFoot  -9.31921 -0.31991 16.8702
RightToes  -1.33073e-015 0 -3.6325e-017
Spine  7.18312 3.93463 1.79413
Spine1  4.4264 5.95822 -10.174
HEad  -4.45711 -1.153 -0.590235
LeftShoulder1  -0.451926 4.66213 -32.8848
LeftArm  0.859056 12.8202 -39.3286
LeftForeArm  31.4105 -12.1468 -8.13842
LeftHand  -0.118384 9.11279 -2.01599
RightShoulder  -0.981065 -6.11717 30.9636
RightArm  18.1382 5.82953 49.6341
RightForeArm  13.8481 8.83658 8.52189
RightHand  -0.24789 4.87996 -3.03997
LeftUpLeg  -21.0578 3.62593 -8.28626
LeftLeg  23.946 2.73744 1.67267
LeftFoot  1.93512 -0.768382 6.48378
LeftToes  -1.63346e-009 7.54925e-011 9.86887e-012
366
root  9.65517 37.5742 0.426322 -142.254 -78.949 136.097
RightUpLeg  5.64914 4.87795 -11.2938
RightLeg  53.0556 5.56706 7.55684
RightFoot  4.7107 -1.90564 14.0792
RightToes  -1.33073e-015 0 -3.6325e-017
Spine  7.63502 3.90352 0.10317
Spine1  4.56983 5.75549 -10.4532
HEad  -4.69336 0.262309 -1.53291
LeftShoulder1  -0.425968 4.6053 -32.5375
LeftArm  1.69601 11.8959 -40.0585
LeftForeArm  29.3264 -13.4358 -7.65711
LeftHand  -0.0841832 8.72427 -1.22383
RightShoulder  -0.897685 -5.90691 30.7476
RightArm  16.9275 5.23307 50.4002
RightForeArm  18.5908 4.47216 8.92893
RightHand  -0.0718248 1.82671 -1.35674
LeftUpLeg  -19.1141 4.39452 -9.93404
LeftLeg  25.5054 3.26594 2.04938
LeftFoot  -1.24681 -0.609952 6.96178
LeftToes  -1.63346e-009 7.54925e-011 9.86887e-012
367
root  8.28216 37.7118 0.545858 -139.511 -77.7958 133.267
RightUpLeg  -1.17646 6.41223 -12.5889
RightLeg  61.802 4.60088 8.71587
RightFoot  12.2331 -1.94823 9.52423
RightToes  -1.33073e-015 0 -3.6325e-017
Spine  7.87061 3.73449 -2.427
Spine1  4.86171 5.13719 -9.71019
HEad  -4.84911 1.22648 -2.2672
LeftShoulder1  -0.433813 4.61591 -32.8652
LeftArm  4.76986 10.3561 -39.9048
LeftForeArm  26.2077 -15.3155 -7.10584
LeftHand  -0.0553452 7.69098 -0.527851
RightShoulder  -0.868995 -5.84338 30.5284
RightArm  17.5039 4.28156 50.6362
RightForeArm  22.1365 3.01738 9.208
RightHand  -0.0387405 1.3243 -0.804639
LeftUpLeg  -16.8361 4.59817 -11.5444
LeftLeg  25.6905 3.79239 2.34799
LeftFoot  -3.7118 -0.436685 6.87971
LeftToes  -1.63346e-009 7.54925e-011 9.86887e-012
